<mxfile host="app.diagrams.net" modified="2023-06-24T09:30:49.629Z" agent="Mozilla/5.0 (X11; Linux x86_64; rv:109.0) Gecko/20100101 Firefox/113.0" etag="8RSESchNbc39IP1wiWVT" version="21.5.0" type="device">
  <diagram name="Page-1" id="jCOoQlf_-H1OvfI_m8Ck">
    <mxGraphModel dx="1434" dy="743" grid="1" gridSize="10" guides="1" tooltips="1" connect="1" arrows="1" fold="1" page="1" pageScale="1" pageWidth="850" pageHeight="1100" math="0" shadow="0">
      <root>
        <mxCell id="0" />
        <mxCell id="1" parent="0" />
        <mxCell id="Q_FoPeRNUOorXx9U4-rW-6" style="edgeStyle=orthogonalEdgeStyle;rounded=0;orthogonalLoop=1;jettySize=auto;html=1;exitX=0.25;exitY=1;exitDx=0;exitDy=0;entryX=0.25;entryY=0;entryDx=0;entryDy=0;" edge="1" parent="1" source="Q_FoPeRNUOorXx9U4-rW-1" target="Q_FoPeRNUOorXx9U4-rW-2">
          <mxGeometry relative="1" as="geometry" />
        </mxCell>
        <mxCell id="Q_FoPeRNUOorXx9U4-rW-7" style="edgeStyle=orthogonalEdgeStyle;rounded=0;orthogonalLoop=1;jettySize=auto;html=1;exitX=0.75;exitY=1;exitDx=0;exitDy=0;entryX=0.75;entryY=0;entryDx=0;entryDy=0;" edge="1" parent="1" source="Q_FoPeRNUOorXx9U4-rW-1" target="Q_FoPeRNUOorXx9U4-rW-2">
          <mxGeometry relative="1" as="geometry" />
        </mxCell>
        <mxCell id="Q_FoPeRNUOorXx9U4-rW-1" value="instruction cache" style="rounded=0;whiteSpace=wrap;html=1;" vertex="1" parent="1">
          <mxGeometry x="320" y="120" width="120" height="60" as="geometry" />
        </mxCell>
        <mxCell id="Q_FoPeRNUOorXx9U4-rW-8" style="edgeStyle=orthogonalEdgeStyle;rounded=0;orthogonalLoop=1;jettySize=auto;html=1;exitX=0.25;exitY=1;exitDx=0;exitDy=0;entryX=0.25;entryY=0;entryDx=0;entryDy=0;" edge="1" parent="1" source="Q_FoPeRNUOorXx9U4-rW-2" target="Q_FoPeRNUOorXx9U4-rW-4">
          <mxGeometry relative="1" as="geometry" />
        </mxCell>
        <mxCell id="Q_FoPeRNUOorXx9U4-rW-9" style="edgeStyle=orthogonalEdgeStyle;rounded=0;orthogonalLoop=1;jettySize=auto;html=1;exitX=0.75;exitY=1;exitDx=0;exitDy=0;entryX=0.75;entryY=0;entryDx=0;entryDy=0;" edge="1" parent="1" source="Q_FoPeRNUOorXx9U4-rW-2" target="Q_FoPeRNUOorXx9U4-rW-4">
          <mxGeometry relative="1" as="geometry" />
        </mxCell>
        <mxCell id="Q_FoPeRNUOorXx9U4-rW-60" style="edgeStyle=orthogonalEdgeStyle;rounded=0;orthogonalLoop=1;jettySize=auto;html=1;exitX=0;exitY=0.25;exitDx=0;exitDy=0;entryX=1;entryY=0.25;entryDx=0;entryDy=0;" edge="1" parent="1" source="Q_FoPeRNUOorXx9U4-rW-2" target="Q_FoPeRNUOorXx9U4-rW-57">
          <mxGeometry relative="1" as="geometry" />
        </mxCell>
        <mxCell id="Q_FoPeRNUOorXx9U4-rW-2" value="loader" style="rounded=0;whiteSpace=wrap;html=1;" vertex="1" parent="1">
          <mxGeometry x="320" y="240" width="120" height="60" as="geometry" />
        </mxCell>
        <mxCell id="Q_FoPeRNUOorXx9U4-rW-3" value="regs" style="rounded=0;whiteSpace=wrap;html=1;" vertex="1" parent="1">
          <mxGeometry x="560" y="480" width="120" height="60" as="geometry" />
        </mxCell>
        <mxCell id="Q_FoPeRNUOorXx9U4-rW-10" style="edgeStyle=orthogonalEdgeStyle;rounded=0;orthogonalLoop=1;jettySize=auto;html=1;exitX=0.25;exitY=1;exitDx=0;exitDy=0;entryX=0.25;entryY=0;entryDx=0;entryDy=0;" edge="1" parent="1" source="Q_FoPeRNUOorXx9U4-rW-4" target="Q_FoPeRNUOorXx9U4-rW-5">
          <mxGeometry relative="1" as="geometry" />
        </mxCell>
        <mxCell id="Q_FoPeRNUOorXx9U4-rW-11" style="edgeStyle=orthogonalEdgeStyle;rounded=0;orthogonalLoop=1;jettySize=auto;html=1;exitX=0.75;exitY=1;exitDx=0;exitDy=0;entryX=0.75;entryY=0;entryDx=0;entryDy=0;" edge="1" parent="1" source="Q_FoPeRNUOorXx9U4-rW-4" target="Q_FoPeRNUOorXx9U4-rW-5">
          <mxGeometry relative="1" as="geometry" />
        </mxCell>
        <mxCell id="Q_FoPeRNUOorXx9U4-rW-4" value="decoder" style="rounded=0;whiteSpace=wrap;html=1;" vertex="1" parent="1">
          <mxGeometry x="320" y="360" width="120" height="60" as="geometry" />
        </mxCell>
        <mxCell id="Q_FoPeRNUOorXx9U4-rW-13" style="edgeStyle=orthogonalEdgeStyle;rounded=0;orthogonalLoop=1;jettySize=auto;html=1;exitX=0.25;exitY=1;exitDx=0;exitDy=0;entryX=0.25;entryY=0;entryDx=0;entryDy=0;" edge="1" parent="1" source="Q_FoPeRNUOorXx9U4-rW-5" target="Q_FoPeRNUOorXx9U4-rW-12">
          <mxGeometry relative="1" as="geometry" />
        </mxCell>
        <mxCell id="Q_FoPeRNUOorXx9U4-rW-14" style="edgeStyle=orthogonalEdgeStyle;rounded=0;orthogonalLoop=1;jettySize=auto;html=1;exitX=0.75;exitY=1;exitDx=0;exitDy=0;entryX=0.75;entryY=0;entryDx=0;entryDy=0;" edge="1" parent="1" source="Q_FoPeRNUOorXx9U4-rW-5" target="Q_FoPeRNUOorXx9U4-rW-12">
          <mxGeometry relative="1" as="geometry" />
        </mxCell>
        <mxCell id="Q_FoPeRNUOorXx9U4-rW-17" value="renaming" style="edgeStyle=orthogonalEdgeStyle;rounded=0;orthogonalLoop=1;jettySize=auto;html=1;exitX=1;exitY=0.5;exitDx=0;exitDy=0;entryX=0;entryY=0.5;entryDx=0;entryDy=0;startArrow=classic;startFill=1;" edge="1" parent="1" source="Q_FoPeRNUOorXx9U4-rW-5" target="Q_FoPeRNUOorXx9U4-rW-3">
          <mxGeometry relative="1" as="geometry" />
        </mxCell>
        <mxCell id="Q_FoPeRNUOorXx9U4-rW-5" value="resolver" style="rounded=0;whiteSpace=wrap;html=1;" vertex="1" parent="1">
          <mxGeometry x="320" y="480" width="120" height="60" as="geometry" />
        </mxCell>
        <mxCell id="Q_FoPeRNUOorXx9U4-rW-29" style="edgeStyle=orthogonalEdgeStyle;rounded=0;orthogonalLoop=1;jettySize=auto;html=1;exitX=0;exitY=0.5;exitDx=0;exitDy=0;entryX=0;entryY=0.5;entryDx=0;entryDy=0;" edge="1" parent="1" source="Q_FoPeRNUOorXx9U4-rW-12" target="Q_FoPeRNUOorXx9U4-rW-5">
          <mxGeometry relative="1" as="geometry" />
        </mxCell>
        <mxCell id="Q_FoPeRNUOorXx9U4-rW-30" style="edgeStyle=orthogonalEdgeStyle;rounded=0;orthogonalLoop=1;jettySize=auto;html=1;exitX=0;exitY=0.5;exitDx=0;exitDy=0;entryX=0;entryY=0.5;entryDx=0;entryDy=0;" edge="1" parent="1" source="Q_FoPeRNUOorXx9U4-rW-12" target="Q_FoPeRNUOorXx9U4-rW-4">
          <mxGeometry relative="1" as="geometry" />
        </mxCell>
        <mxCell id="Q_FoPeRNUOorXx9U4-rW-31" value="stop" style="edgeStyle=orthogonalEdgeStyle;rounded=0;orthogonalLoop=1;jettySize=auto;html=1;exitX=0;exitY=0.5;exitDx=0;exitDy=0;entryX=0;entryY=0.5;entryDx=0;entryDy=0;" edge="1" parent="1" source="Q_FoPeRNUOorXx9U4-rW-12" target="Q_FoPeRNUOorXx9U4-rW-2">
          <mxGeometry relative="1" as="geometry" />
        </mxCell>
        <mxCell id="Q_FoPeRNUOorXx9U4-rW-55" style="edgeStyle=orthogonalEdgeStyle;rounded=0;orthogonalLoop=1;jettySize=auto;html=1;exitX=0.25;exitY=1;exitDx=0;exitDy=0;entryX=1;entryY=0.25;entryDx=0;entryDy=0;" edge="1" parent="1" source="Q_FoPeRNUOorXx9U4-rW-12" target="Q_FoPeRNUOorXx9U4-rW-54">
          <mxGeometry relative="1" as="geometry" />
        </mxCell>
        <mxCell id="Q_FoPeRNUOorXx9U4-rW-61" value="source registers" style="edgeStyle=orthogonalEdgeStyle;rounded=0;orthogonalLoop=1;jettySize=auto;html=1;exitX=1;exitY=0.5;exitDx=0;exitDy=0;entryX=0.25;entryY=1;entryDx=0;entryDy=0;" edge="1" parent="1" source="Q_FoPeRNUOorXx9U4-rW-12" target="Q_FoPeRNUOorXx9U4-rW-3">
          <mxGeometry relative="1" as="geometry" />
        </mxCell>
        <mxCell id="Q_FoPeRNUOorXx9U4-rW-64" style="edgeStyle=orthogonalEdgeStyle;rounded=0;orthogonalLoop=1;jettySize=auto;html=1;exitX=0.25;exitY=1;exitDx=0;exitDy=0;entryX=0;entryY=0.25;entryDx=0;entryDy=0;" edge="1" parent="1" source="Q_FoPeRNUOorXx9U4-rW-12" target="Q_FoPeRNUOorXx9U4-rW-19">
          <mxGeometry relative="1" as="geometry" />
        </mxCell>
        <mxCell id="Q_FoPeRNUOorXx9U4-rW-65" style="edgeStyle=orthogonalEdgeStyle;rounded=0;orthogonalLoop=1;jettySize=auto;html=1;exitX=0.75;exitY=1;exitDx=0;exitDy=0;entryX=0;entryY=0.75;entryDx=0;entryDy=0;" edge="1" parent="1" source="Q_FoPeRNUOorXx9U4-rW-12" target="Q_FoPeRNUOorXx9U4-rW-19">
          <mxGeometry relative="1" as="geometry" />
        </mxCell>
        <mxCell id="Q_FoPeRNUOorXx9U4-rW-66" style="edgeStyle=orthogonalEdgeStyle;rounded=0;orthogonalLoop=1;jettySize=auto;html=1;exitX=0.75;exitY=1;exitDx=0;exitDy=0;entryX=1;entryY=0.75;entryDx=0;entryDy=0;" edge="1" parent="1" source="Q_FoPeRNUOorXx9U4-rW-12" target="Q_FoPeRNUOorXx9U4-rW-54">
          <mxGeometry relative="1" as="geometry" />
        </mxCell>
        <mxCell id="Q_FoPeRNUOorXx9U4-rW-12" value="issuer" style="rounded=0;whiteSpace=wrap;html=1;" vertex="1" parent="1">
          <mxGeometry x="320" y="600" width="120" height="60" as="geometry" />
        </mxCell>
        <mxCell id="Q_FoPeRNUOorXx9U4-rW-22" value="&lt;div&gt;values, &lt;br&gt;&lt;/div&gt;&lt;div&gt;renamed registers&lt;/div&gt;" style="edgeStyle=orthogonalEdgeStyle;rounded=0;orthogonalLoop=1;jettySize=auto;html=1;exitX=0.75;exitY=0;exitDx=0;exitDy=0;startArrow=classic;startFill=1;entryX=0.75;entryY=1;entryDx=0;entryDy=0;" edge="1" parent="1" source="Q_FoPeRNUOorXx9U4-rW-19" target="Q_FoPeRNUOorXx9U4-rW-3">
          <mxGeometry relative="1" as="geometry">
            <mxPoint x="640" y="550" as="targetPoint" />
          </mxGeometry>
        </mxCell>
        <mxCell id="Q_FoPeRNUOorXx9U4-rW-69" style="edgeStyle=orthogonalEdgeStyle;rounded=0;orthogonalLoop=1;jettySize=auto;html=1;exitX=1;exitY=0.5;exitDx=0;exitDy=0;" edge="1" parent="1" source="Q_FoPeRNUOorXx9U4-rW-19" target="Q_FoPeRNUOorXx9U4-rW-68">
          <mxGeometry relative="1" as="geometry" />
        </mxCell>
        <mxCell id="Q_FoPeRNUOorXx9U4-rW-72" style="edgeStyle=orthogonalEdgeStyle;rounded=0;orthogonalLoop=1;jettySize=auto;html=1;exitX=0.5;exitY=1;exitDx=0;exitDy=0;" edge="1" parent="1" source="Q_FoPeRNUOorXx9U4-rW-19" target="Q_FoPeRNUOorXx9U4-rW-71">
          <mxGeometry relative="1" as="geometry" />
        </mxCell>
        <mxCell id="Q_FoPeRNUOorXx9U4-rW-19" value="&lt;div&gt;compare (comb log.)&lt;/div&gt;" style="rounded=0;whiteSpace=wrap;html=1;" vertex="1" parent="1">
          <mxGeometry x="560" y="720" width="120" height="60" as="geometry" />
        </mxCell>
        <mxCell id="Q_FoPeRNUOorXx9U4-rW-35" value="instruction cache block size" style="edgeStyle=orthogonalEdgeStyle;rounded=0;orthogonalLoop=1;jettySize=auto;html=1;exitX=0;exitY=0.5;exitDx=0;exitDy=0;entryX=1;entryY=0.5;entryDx=0;entryDy=0;" edge="1" parent="1" source="Q_FoPeRNUOorXx9U4-rW-34" target="Q_FoPeRNUOorXx9U4-rW-1">
          <mxGeometry relative="1" as="geometry" />
        </mxCell>
        <mxCell id="Q_FoPeRNUOorXx9U4-rW-37" value="data cache block size" style="edgeStyle=orthogonalEdgeStyle;rounded=0;orthogonalLoop=1;jettySize=auto;html=1;exitX=0.25;exitY=1;exitDx=0;exitDy=0;entryX=0.5;entryY=0;entryDx=0;entryDy=0;" edge="1" parent="1" source="Q_FoPeRNUOorXx9U4-rW-34" target="Q_FoPeRNUOorXx9U4-rW-36">
          <mxGeometry relative="1" as="geometry" />
        </mxCell>
        <mxCell id="Q_FoPeRNUOorXx9U4-rW-41" value="ram block size" style="edgeStyle=orthogonalEdgeStyle;rounded=0;orthogonalLoop=1;jettySize=auto;html=1;exitX=1;exitY=0.5;exitDx=0;exitDy=0;entryX=0;entryY=0.5;entryDx=0;entryDy=0;startArrow=classic;startFill=1;" edge="1" parent="1" source="Q_FoPeRNUOorXx9U4-rW-34" target="Q_FoPeRNUOorXx9U4-rW-38">
          <mxGeometry relative="1" as="geometry" />
        </mxCell>
        <mxCell id="Q_FoPeRNUOorXx9U4-rW-34" value="mmu" style="rounded=0;whiteSpace=wrap;html=1;" vertex="1" parent="1">
          <mxGeometry x="840" y="120" width="120" height="60" as="geometry" />
        </mxCell>
        <mxCell id="Q_FoPeRNUOorXx9U4-rW-40" style="edgeStyle=orthogonalEdgeStyle;rounded=0;orthogonalLoop=1;jettySize=auto;html=1;exitX=1;exitY=0.5;exitDx=0;exitDy=0;entryX=0;entryY=0.5;entryDx=0;entryDy=0;" edge="1" parent="1" source="Q_FoPeRNUOorXx9U4-rW-36" target="Q_FoPeRNUOorXx9U4-rW-39">
          <mxGeometry relative="1" as="geometry" />
        </mxCell>
        <mxCell id="Q_FoPeRNUOorXx9U4-rW-36" value="data cache" style="whiteSpace=wrap;html=1;" vertex="1" parent="1">
          <mxGeometry x="840" y="980" width="120" height="60" as="geometry" />
        </mxCell>
        <mxCell id="Q_FoPeRNUOorXx9U4-rW-38" value="ram" style="rounded=0;whiteSpace=wrap;html=1;" vertex="1" parent="1">
          <mxGeometry x="1200" y="120" width="120" height="60" as="geometry" />
        </mxCell>
        <mxCell id="Q_FoPeRNUOorXx9U4-rW-42" style="edgeStyle=orthogonalEdgeStyle;rounded=0;orthogonalLoop=1;jettySize=auto;html=1;exitX=0.5;exitY=0;exitDx=0;exitDy=0;entryX=0.75;entryY=1;entryDx=0;entryDy=0;" edge="1" parent="1" source="Q_FoPeRNUOorXx9U4-rW-39" target="Q_FoPeRNUOorXx9U4-rW-34">
          <mxGeometry relative="1" as="geometry">
            <Array as="points">
              <mxPoint x="1070" y="510" />
              <mxPoint x="930" y="510" />
            </Array>
          </mxGeometry>
        </mxCell>
        <mxCell id="Q_FoPeRNUOorXx9U4-rW-39" value="write buffer" style="rounded=0;whiteSpace=wrap;html=1;" vertex="1" parent="1">
          <mxGeometry x="1010" y="980" width="120" height="60" as="geometry" />
        </mxCell>
        <mxCell id="Q_FoPeRNUOorXx9U4-rW-44" value="reservation station" style="rounded=0;whiteSpace=wrap;html=1;" vertex="1" parent="1">
          <mxGeometry x="160" y="920" width="120" height="60" as="geometry" />
        </mxCell>
        <mxCell id="Q_FoPeRNUOorXx9U4-rW-45" value="reservation station" style="rounded=0;whiteSpace=wrap;html=1;" vertex="1" parent="1">
          <mxGeometry x="320" y="920" width="120" height="60" as="geometry" />
        </mxCell>
        <mxCell id="Q_FoPeRNUOorXx9U4-rW-46" value="reservation station" style="rounded=0;whiteSpace=wrap;html=1;" vertex="1" parent="1">
          <mxGeometry x="480" y="920" width="120" height="60" as="geometry" />
        </mxCell>
        <mxCell id="Q_FoPeRNUOorXx9U4-rW-47" value="reservation station" style="rounded=0;whiteSpace=wrap;html=1;" vertex="1" parent="1">
          <mxGeometry x="640" y="920" width="120" height="60" as="geometry" />
        </mxCell>
        <mxCell id="Q_FoPeRNUOorXx9U4-rW-48" value="BR" style="shape=trapezoid;perimeter=trapezoidPerimeter;whiteSpace=wrap;html=1;fixedSize=1;flipV=1;" vertex="1" parent="1">
          <mxGeometry x="160" y="980" width="120" height="60" as="geometry" />
        </mxCell>
        <mxCell id="Q_FoPeRNUOorXx9U4-rW-49" value="ALU" style="shape=trapezoid;perimeter=trapezoidPerimeter;whiteSpace=wrap;html=1;fixedSize=1;flipV=1;" vertex="1" parent="1">
          <mxGeometry x="320" y="980" width="60" height="60" as="geometry" />
        </mxCell>
        <mxCell id="Q_FoPeRNUOorXx9U4-rW-50" value="ALU" style="shape=trapezoid;perimeter=trapezoidPerimeter;whiteSpace=wrap;html=1;fixedSize=1;flipV=1;" vertex="1" parent="1">
          <mxGeometry x="380" y="980" width="60" height="60" as="geometry" />
        </mxCell>
        <mxCell id="Q_FoPeRNUOorXx9U4-rW-51" value="MLT/DIV" style="shape=trapezoid;perimeter=trapezoidPerimeter;whiteSpace=wrap;html=1;fixedSize=1;flipV=1;" vertex="1" parent="1">
          <mxGeometry x="480" y="980" width="120" height="60" as="geometry" />
        </mxCell>
        <mxCell id="Q_FoPeRNUOorXx9U4-rW-53" style="edgeStyle=orthogonalEdgeStyle;rounded=0;orthogonalLoop=1;jettySize=auto;html=1;exitX=1;exitY=0.5;exitDx=0;exitDy=0;entryX=0;entryY=0.5;entryDx=0;entryDy=0;startArrow=classic;startFill=1;" edge="1" parent="1" source="Q_FoPeRNUOorXx9U4-rW-52" target="Q_FoPeRNUOorXx9U4-rW-36">
          <mxGeometry relative="1" as="geometry" />
        </mxCell>
        <mxCell id="Q_FoPeRNUOorXx9U4-rW-52" value="L/S" style="shape=trapezoid;perimeter=trapezoidPerimeter;whiteSpace=wrap;html=1;fixedSize=1;flipV=1;" vertex="1" parent="1">
          <mxGeometry x="640" y="980" width="120" height="60" as="geometry" />
        </mxCell>
        <mxCell id="Q_FoPeRNUOorXx9U4-rW-58" style="edgeStyle=orthogonalEdgeStyle;rounded=0;orthogonalLoop=1;jettySize=auto;html=1;exitX=0.5;exitY=0;exitDx=0;exitDy=0;entryX=0.5;entryY=1;entryDx=0;entryDy=0;" edge="1" parent="1" source="Q_FoPeRNUOorXx9U4-rW-54" target="Q_FoPeRNUOorXx9U4-rW-57">
          <mxGeometry relative="1" as="geometry" />
        </mxCell>
        <mxCell id="Q_FoPeRNUOorXx9U4-rW-54" value="reorder buffer" style="rounded=0;whiteSpace=wrap;html=1;" vertex="1" parent="1">
          <mxGeometry x="80" y="720" width="120" height="60" as="geometry" />
        </mxCell>
        <mxCell id="Q_FoPeRNUOorXx9U4-rW-59" style="edgeStyle=orthogonalEdgeStyle;rounded=0;orthogonalLoop=1;jettySize=auto;html=1;exitX=0.5;exitY=0;exitDx=0;exitDy=0;entryX=0;entryY=0.5;entryDx=0;entryDy=0;" edge="1" parent="1" source="Q_FoPeRNUOorXx9U4-rW-57" target="Q_FoPeRNUOorXx9U4-rW-1">
          <mxGeometry relative="1" as="geometry" />
        </mxCell>
        <mxCell id="Q_FoPeRNUOorXx9U4-rW-57" value="pc" style="rounded=0;whiteSpace=wrap;html=1;" vertex="1" parent="1">
          <mxGeometry x="80" y="240" width="120" height="60" as="geometry" />
        </mxCell>
        <mxCell id="Q_FoPeRNUOorXx9U4-rW-68" value="cdb" style="ellipse;shape=cloud;whiteSpace=wrap;html=1;" vertex="1" parent="1">
          <mxGeometry x="740" y="720" width="80" height="60" as="geometry" />
        </mxCell>
        <mxCell id="Q_FoPeRNUOorXx9U4-rW-71" value="iib" style="ellipse;shape=cloud;whiteSpace=wrap;html=1;" vertex="1" parent="1">
          <mxGeometry x="580" y="820" width="80" height="60" as="geometry" />
        </mxCell>
      </root>
    </mxGraphModel>
  </diagram>
</mxfile>
